<?xml version="1.0" encoding="UTF-8" standalone="no"?>
<svg
   width="14"
   height="14"
   viewBox="0 0 14 14"
   version="1.1"
   id="svg4"
   sodipodi:docname="clock_tower-5.svg"
   inkscape:version="1.2.2 (b0a8486541, 2022-12-01)"
   xmlns:inkscape="http://www.inkscape.org/namespaces/inkscape"
   xmlns:sodipodi="http://sodipodi.sourceforge.net/DTD/sodipodi-0.dtd"
   xmlns="http://www.w3.org/2000/svg"
   xmlns:svg="http://www.w3.org/2000/svg">
  <defs
     id="defs8" />
  <sodipodi:namedview
     id="namedview6"
     pagecolor="#ffffff"
     bordercolor="#000000"
     borderopacity="0.25"
     inkscape:showpageshadow="2"
     inkscape:pageopacity="0.0"
     inkscape:pagecheckerboard="0"
     inkscape:deskcolor="#d1d1d1"
     showgrid="true"
     inkscape:zoom="45.254834"
     inkscape:cx="12.672679"
     inkscape:cy="10.131514"
     inkscape:window-width="1920"
     inkscape:window-height="1020"
     inkscape:window-x="0"
     inkscape:window-y="0"
     inkscape:window-maximized="1"
     inkscape:current-layer="svg4">
    <inkscape:grid
       type="xygrid"
       id="grid168" />
  </sodipodi:namedview>
  <path
     d="M 7,0 1,3 V 14 H 2 V 6 C 2,4.3431458 5.3431458,3 7,3 c 1.6568542,0 5,1.3431458 5,3 v 8 h 1 V 3 Z"
     id="path2"
     sodipodi:nodetypes="ccccssscccc" />
  <path
     id="path1137"
     style="fill:#000000;stroke-width:1.33333"
     d="M 7 4 L 7 8 L 10 8 L 10 9 L 7 9 L 7 8 L 6 8 L 6 4.1289062 A 4 4 0 0 0 3 8 A 4 4 0 0 0 7 12 A 4 4 0 0 0 11 8 A 4 4 0 0 0 7 4 z " />
</svg>
