<?xml version="1.0" encoding="UTF-8" standalone="no"?>
<svg
   xmlns:dc="http://purl.org/dc/elements/1.1/"
   xmlns:cc="http://creativecommons.org/ns#"
   xmlns:rdf="http://www.w3.org/1999/02/22-rdf-syntax-ns#"
   xmlns:svg="http://www.w3.org/2000/svg"
   xmlns="http://www.w3.org/2000/svg"
   xmlns:sodipodi="http://sodipodi.sourceforge.net/DTD/sodipodi-0.dtd"
   xmlns:inkscape="http://www.inkscape.org/namespaces/inkscape"
   version="1.1"
   id="svg891"
   sodipodi:docname="grape.svg"
   inkscape:version="0.92.4 (5da689c313, 2019-01-14)"
   width="16"
   height="32"
   inkscape:export-filename="/home/mdione/src/projects/osm/symbols/local/grape.png"
   inkscape:export-xdpi="96"
   inkscape:export-ydpi="96">
  <metadata
     id="metadata897">
    <rdf:RDF>
      <cc:Work
         rdf:about="">
        <dc:format>image/svg+xml</dc:format>
        <dc:type
           rdf:resource="http://purl.org/dc/dcmitype/StillImage" />
        <dc:title></dc:title>
      </cc:Work>
    </rdf:RDF>
  </metadata>
  <defs
     id="defs895" />
  <sodipodi:namedview
     pagecolor="#ffffff"
     bordercolor="#666666"
     borderopacity="1"
     objecttolerance="10"
     gridtolerance="10"
     guidetolerance="10"
     inkscape:pageopacity="0"
     inkscape:pageshadow="2"
     inkscape:window-width="1504"
     inkscape:window-height="873"
     id="namedview893"
     showgrid="false"
     inkscape:zoom="6.89"
     inkscape:cx="43.904209"
     inkscape:cy="50"
     inkscape:window-x="30"
     inkscape:window-y="0"
     inkscape:window-maximized="1"
     inkscape:current-layer="svg891" />
  <g
     id="g5340"
     transform="matrix(1.2365121,0,0,1.0974657,-2.8004703,-3.320687)"
     style="fill:#800080">
    <path
       sodipodi:nodetypes="ssccsssccss"
       style="stroke-width:0.19857097;fill:#800080"
       d="m 6.7230375,9.7553176 c -0.3893948,0 -0.7050741,-0.4006065 -0.7050741,-0.8947807 0,-0.334223 0.1636885,-0.5754908 0.3776425,-0.7291471 L 6.4421096,8.231394 C 6.2692959,8.3565739 6.1501648,8.5809179 6.1501648,8.9164608 c 0,0.4015106 0.2564884,0.6710854 0.5728727,0.6710854 0.2203356,0 0.4847384,-0.3254987 0.4847384,-0.7270093 0,-0.270112 -0.078032,-0.4898255 -0.2368609,-0.6151619 L 7.037016,8.0636226 c 0.2315569,0.146677 0.3910958,0.4461602 0.3910958,0.7969143 0,0.4941742 -0.3156792,0.8947807 -0.7050743,0.8947807 z"
       id="path885"
       inkscape:connector-curvature="0" />
    <path
       style="stroke-width:0.22876759;fill:#800080"
       d="m 6.2739776,8.3494306 c -0.4624495,0 -0.8373537,-0.4477146 -0.8373537,-0.9999996 0,-0.373525 0.1711247,-0.695475 0.4252187,-0.8672 l 0.078502,0.164075 c -0.2052354,0.1399 -0.3467168,0.390625 -0.3467168,0.765625 0,0.448725 0.3046084,0.7499996 0.6803499,0.7499996 0.2616731,0 0.5756807,-0.3637746 0.5756807,-0.8124996 0,-0.301875 -0.092672,-0.547425 -0.2812985,-0.6875 l 0.078502,-0.203125 c 0.2749996,0.163925 0.4644696,0.498625 0.4644696,0.890625 0,0.552285 -0.3749041,0.9999996 -0.8373539,0.9999996 z"
       id="path885-3"
       inkscape:connector-curvature="0" />
    <path
       style="stroke-width:0.19232689;fill:#800080"
       d="m 4.843397,8.1739044 c -0.386689,0 -0.7001748,-0.378438 -0.7001748,-0.8452659 0,-0.315728 0.1430903,-0.5878615 0.3555575,-0.7330148 l 0.065642,0.1386871 c -0.171613,0.1182527 -0.2899163,0.3301821 -0.2899163,0.6471569 0,0.3792921 0.2547061,0.6339493 0.568892,0.6339493 0.2188047,0 0.4813702,-0.3074864 0.4813702,-0.6867785 0,-0.2551647 -0.07749,-0.4627198 -0.235215,-0.5811205 l 0.065641,-0.1716947 c 0.229948,0.1385603 0.3883783,0.4214709 0.3883783,0.7528152 0,0.4668279 -0.3134858,0.8452659 -0.7001749,0.8452659 z"
       id="path885-6"
       inkscape:connector-curvature="0" />
    <path
       sodipodi:nodetypes="ssccsssccss"
       style="stroke-width:0.22876759;fill:#800080"
       d="m 5.4411053,9.8238497 c -0.4624495,0 -0.8373537,-0.447714 -0.8373537,-0.999999 0,-0.373525 0.1711247,-0.695475 0.4252187,-0.8672003 l 0.078502,0.1231192 c -0.2052354,0.1399 -0.3467168,0.4315811 -0.3467168,0.8065811 0,0.448725 0.3046084,0.749999 0.6803499,0.749999 0.2616731,0 0.5756807,-0.363774 0.5756807,-0.812499 0,-0.301875 -0.092672,-0.594232 -0.2812985,-0.734307 l 0.044207,-0.1095113 c 0.2749995,0.1639253 0.4987644,0.4518183 0.4987644,0.8438183 0,0.552285 -0.3749043,0.999999 -0.8373537,0.999999 z"
       id="path885-7"
       inkscape:connector-curvature="0" />
    <path
       sodipodi:nodetypes="ssccsssccss"
       style="stroke-width:0.20737274;fill:#800080"
       d="m 4.6629034,11.054211 c -0.4232164,0 -0.7663146,-0.401992 -0.7663146,-0.897876 0,-0.335379 0.1566069,-0.6244494 0.3891441,-0.7786371 l 0.071842,0.1473189 C 4.1697512,9.65063 4.0402728,9.875749 4.0402728,10.212453 c 0,0.402899 0.2787661,0.673406 0.6226306,0.673406 0.2394734,0 0.5268414,-0.326624 0.5268414,-0.729524 0,-0.271046 -0.08481,-0.491519 -0.2574339,-0.6172889 l -0.05064,-0.1589775 c 0.2516692,0.1471843 0.5475464,0.4242994 0.5475464,0.7762664 0,0.495884 -0.3430983,0.897876 -0.7663139,0.897876 z"
       id="path885-5"
       inkscape:connector-curvature="0" />
    <path
       sodipodi:nodetypes="ssccsssccss"
       style="stroke-width:0.22876759;fill:#800080"
       d="m 6.0486122,11.286567 c -0.4624495,0 -0.8373537,-0.447714 -0.8373537,-0.999999 0,-0.3735247 0.07314,-0.4614399 0.3272337,-0.6331649 l 0.063804,0.1289698 c -0.2052354,0.1399 -0.2340341,0.1916955 -0.2340341,0.5666951 0,0.448725 0.3046084,0.749999 0.6803499,0.749999 0.2616731,0 0.5756805,-0.363774 0.5756805,-0.812499 0,-0.3018746 -0.092672,-0.5474247 -0.2812983,-0.6874997 l 0.1519907,-0.056853 c 0.2749995,0.163925 0.3909804,0.3523532 0.3909804,0.7443537 0,0.552285 -0.3749042,0.999999 -0.8373531,0.999998 z"
       id="path885-3-3"
       inkscape:connector-curvature="0" />
    <path
       sodipodi:nodetypes="ssccsssccss"
       style="stroke-width:0.20544668;fill:#800080"
       d="m 4.1091506,9.5781133 c -0.4002177,0 -0.724671,-0.4172323 -0.724671,-0.9319165 0,-0.3480944 0.1480964,-0.6481251 0.367997,-0.8081585 l 0.067938,0.1529043 c -0.1776169,0.1303752 -0.3000591,0.3640301 -0.3000591,0.713499 0,0.4181749 0.2636172,0.6989373 0.5887952,0.6989373 0.2264597,0 0.4982113,-0.3390072 0.4982113,-0.7571821 0,-0.2813225 -0.1144956,-0.633023 -0.2777388,-0.7635613 l 0.018945,-0.08398 C 4.586561,7.95142 4.8338214,8.2808853 4.8338214,8.6461968 c 0,0.5146842 -0.3244533,0.9319165 -0.7246708,0.9319165 z"
       id="path885-6-5"
       inkscape:connector-curvature="0" />
    <path
       sodipodi:nodetypes="ssccsssccss"
       style="stroke-width:0.16300353;fill:#800080"
       d="m 5.1574239,12.169235 c -0.3342624,0 -0.6052462,-0.314472 -0.6052462,-0.702395 0,-0.262363 0.1236904,-0.488499 0.3073516,-0.609118 l 0.056742,0.115246 c -0.1483458,0.09826 -0.2506097,0.274373 -0.2506097,0.537772 0,0.315182 0.2201733,0.526796 0.4917625,0.526796 0.1891394,0 0.4161067,-0.255514 0.4161067,-0.570696 0,-0.212036 -0.013513,-0.433434 -0.1498543,-0.531822 l 0.058876,-0.05078 c 0.198772,0.115141 0.280117,0.307264 0.280117,0.582603 0,0.387923 -0.2709839,0.702395 -0.6052457,0.702395 z"
       id="path885-7-6"
       inkscape:connector-curvature="0" />
    <path
       style="stroke-width:0.55412549;fill:#800080"
       sodipodi:nodetypes="ccccc"
       inkscape:connector-curvature="0"
       id="path1464"
       d="M 5.510091,7.2041443 C 5.9228915,5.9537189 5.7524243,5.4618714 5.9459248,4.4383747 L 5.1711414,4.6619536 c 0.3535782,0.7626335 0.3833569,1.0975296 0.1602094,2.4412587 z" />
    <path
       sodipodi:nodetypes="csccsssccssc"
       style="stroke-width:0.20737274;fill:#800080"
       d="m 6.2385473,12.836594 c -0.4232164,0 -0.7464795,-0.362322 -0.7464795,-0.858206 0,-0.335379 0.19231,-0.632383 0.369309,-0.818307 l 0.1150434,0.07537 c -0.1878237,0.125613 -0.3605035,0.422678 -0.3605035,0.759382 0,0.402899 0.2787661,0.673406 0.6226306,0.673406 0.2394734,0 0.5268414,-0.326624 0.5268414,-0.729524 0,-0.271046 -0.3092182,-0.626164 -0.4818421,-0.751933 l 0.1737682,-0.09166 c 0.2516692,0.147184 0.5475464,0.491621 0.5475464,0.843588 0,0.495884 -0.3430983,0.897876 -0.7663139,0.897876 z"
       id="path885-5-2"
       inkscape:connector-curvature="0" />
    <path
       sodipodi:nodetypes="csccssccsc"
       style="stroke-width:0.22876759;fill:#800080"
       d="m 5.1610847,13.550277 c -0.4624495,0 -0.8373537,-0.447714 -0.8373537,-0.999999 0,-0.373525 0.085041,-0.572516 0.3391347,-0.744241 l 0.063804,0.12897 c -0.2052354,0.1399 -0.2459351,0.302771 -0.2459351,0.677771 0,0.448725 0.3046084,0.749999 0.6803499,0.749999 0.2616731,0 0.5756805,-0.363774 0.5756805,-0.812499 0.078849,0.05916 0.1332656,0.08057 0.2418377,0.07934 0,0.552285 -0.3550691,0.920659 -0.817518,0.920658 z"
       id="path885-3-3-9"
       inkscape:connector-curvature="0" />
  </g>
  <path
     style="fill:none;fill-opacity:1;stroke:none;stroke-width:0.8899774;stroke-miterlimit:4;stroke-dasharray:none;stroke-opacity:1"
     d="m 0,0 c 5.333334,0 10.666666,0 16,0 0,10.666667 0,21.333334 0,32 C 10.666666,32 5.333334,32 0,32 0,21.333334 0,10.666667 0,0 Z"
     id="rect5342"
     inkscape:connector-curvature="0" />
</svg>
